# xmcd
#
# Track frame offsets: 
#        150
#        13665
#        28948
#        42475
#        53273
#        62938
#        77728
#        101865
#        115965
#        149025
#        162658
#        173483
#        184435
#        195730
#        209488
#        224440
#
# Disc length: 3193 seconds
#
# Revision: 3
# Processed by: cddbd v1.5.2PL0 Copyright (c) Steve Scherf et al.
# Submitted via: ExactAudioCopy v1.1
#
DISCID=f80c7710
DTITLE=Various Artist - Giants Of Jazz (Luxury Edition) CD2
DYEAR=1999
DGENRE=Jazz
TTITLE0=Goodman Benny - Benny Goodman - Jersey Bounce
TTITLE1=Armstrong Louis - Louis Armstrong - Mack The Knife
TTITLE2=Ellington Duke - Duke Ellington - Sophisticated Lady
TTITLE3=Miller Glenn - Glenn Miller - Moonlight Serenade
TTITLE4=Dorsey Tommy - Tommy Dorsey - I'm Getting Sentimental Over You
TTITLE5=James Harry - Harry James - Flash
TTITLE6=Hampton Lionel - Lionel Hampton - Dizzy Spells
TTITLE7=Basie Count - Count Basie - One O'Clock Jump
TTITLE8=Herman Woody - Woody Herman - Caldonia
TTITLE9=Miller Glenn - Glenn Miller - Little Brown Jug
TTITLE10=Ellington Duke - Duke Ellington - Perdido
TTITLE11=Armstrong Louis - Louis Armstrong - Hello Dolly
TTITLE12=James Harry - Harry James - Chiribiribin
TTITLE13=Basie Count - Count Basie - All Of Me
TTITLE14=Goodman Benny - Benny Goodman - Don't Be That Way
TTITLE15=Armstrong Louis - Louis Armstrong - On The Sunny Side Of The 
TTITLE15=Street
EXTD=YEAR: 1993
EXTT0=
EXTT1=
EXTT2=
EXTT3=
EXTT4=
EXTT5=
EXTT6=
EXTT7=
EXTT8=
EXTT9=
EXTT10=
EXTT11=
EXTT12=
EXTT13=
EXTT14=
EXTT15=
PLAYORDER=
